<?xml version="1.0" encoding="UTF-8" standalone="no"?>
<svg
   width="64"
   height="64"
   viewBox="0 0 32 32"
   preserveAspectRatio="xMidYMid"
   fill="#8cc84b"
   version="1.1"
   id="svg2"
   sodipodi:docname="npx-wrench.svg"
   inkscape:version="1.4 (1:1.4+202410161351+e7c3feb100)"
   xmlns:inkscape="http://www.inkscape.org/namespaces/inkscape"
   xmlns:sodipodi="http://sodipodi.sourceforge.net/DTD/sodipodi-0.dtd"
   xmlns="http://www.w3.org/2000/svg"
   xmlns:svg="http://www.w3.org/2000/svg">
  <defs
     id="defs2" />
  <sodipodi:namedview
     id="namedview2"
     pagecolor="#ffffff"
     bordercolor="#000000"
     borderopacity="0.25"
     inkscape:showpageshadow="2"
     inkscape:pageopacity="0.0"
     inkscape:pagecheckerboard="0"
     inkscape:deskcolor="#d1d1d1"
     inkscape:zoom="12.625"
     inkscape:cx="32"
     inkscape:cy="32"
     inkscape:window-width="1920"
     inkscape:window-height="1011"
     inkscape:window-x="0"
     inkscape:window-y="32"
     inkscape:window-maximized="1"
     inkscape:current-layer="svg2" />
  <path
     d="m 14.656,0.427 c 0.8,-0.453 1.82,-0.455 2.6,0 L 29.2,7.16 c 0.747,0.42 1.247,1.253 1.24,2.114 v 13.5 c 0.005,0.897 -0.544,1.748 -1.332,2.16 l -11.88,6.702 c -0.827509,0.457297 -1.838036,0.429344 -2.639,-0.073 l -3.565,-2.06 c 1.577828,-2.693473 2.636292,-0.596861 4.766,0.309 0.217,0.125 0.437,-0.04 0.623,-0.145 l 11.665,-6.583 c 0.144,-0.07 0.224,-0.222 0.212,-0.38 V 9.334 C 28.306,9.154 28.203,8.99 28.04,8.917 L 16.19,2.244 C 16.050195,2.1473035 15.86522,2.1469057 15.725,2.243 L 3.892,8.93 c -0.16,0.073 -0.27,0.235 -0.25,0.415 l 0.2376238,12.736337 c -0.091192,1.02917 8.7814992,3.933847 5.7602574,6.505227 C 7.2557228,27.077654 1.491,23.679 1.496,22.783 V 9.283 C 1.5027739,8.3894648 1.9935376,7.5698665 2.778,7.142 Z"
     id="path1"
     sodipodi:nodetypes="ccccccccccccccccccccccccc" />
  <path
     d="m 7.3495248,10.500228 a 3.004,3.004 0 0 0 3.6780002,3.674 l 6.341,6.252 a 3.003,3.003 0 0 0 2.879,3.851 3,3 0 1 0 -0.851,-5.878 l -6.252,-6.341 A 3.004,3.004 0 0 0 9.4705248,8.3772277 l 2.1410002,2.1420003 -0.364,1.758 -1.7570002,0.364 z m 13.3700002,9.019 0.528,0.026 0.287,0.445 0.445,0.287 0.026,0.529 0.242,0.471 -0.242,0.471 -0.026,0.529 -0.445,0.287 -0.287,0.445 -0.529,0.026 -0.471,0.242 -0.471,-0.242 -0.529,-0.026 -0.287,-0.445 -0.445,-0.287 -0.026,-0.529 -0.242,-0.471 0.242,-0.471 0.026,-0.529 0.445,-0.287 0.287,-0.445 0.529,-0.026 0.471,-0.242 z"
     id="path2" />
</svg>
